<svg xmlns="http://www.w3.org/2000/svg" viewBox="0 0 842.43 846.28"><defs><style>.cls-1{fill:#b5b5b6;}.cls-2{fill:#595757;}.cls-3{fill:#9fa0a0;}.cls-4{fill:#efefef;}.cls-5{fill:#3e3a39;}</style></defs><g id="Layer_1" data-name="Layer 1"><path class="cls-1" d="M962,468.37c-.76,15.66-1.92,29.46-3.13,41,0,0-.46,4.57-1,8.87-1,9.06-2.91,20.45-5.06,32,0,0,0,0,0,.05-2.19,11.93-4.68,24.09-6.81,34.11-2.24,10.6-4.08,18.82-4.78,21.88-2.39,12.06-5.49,25.08-9.56,38.86q-3.57,12.12-8.18,25c-5.09,14.07-10.56,26.94-16.09,38.59q-6.64,16.15-13.33,32.3c-6,12.39-11.88,23.33-17.21,32.73-8.39,14.83-15.54,25.93-18.73,30.8-7.18,11-14,20.61-20.11,28.77a71.64,71.64,0,0,1-6.58,11.33A70.75,70.75,0,0,1,816.62,860c-8,13.38-16.26,20.44-22.53,24.42a102.13,102.13,0,0,0-17.27,13.79,38.4,38.4,0,0,0-6.29,8.33c-8,1.3-16.18,14.74-24.47,19.7-8.3,2.6-16.72,11.9-25.26,17.2q-8.2,5.1-16.55,9.67A316.54,316.54,0,0,1,668.41,970c-1.63.64-3.25,1.26-4.89,1.87q-4.72,1.77-9.48,3.36c-3.63,1.22-7.27,2.37-10.93,3.42l-25.57,6.1a14.88,14.88,0,0,0-9.16-3.16c-6.87,0-13.84,4.3-20.89,7.05-10.2,9.12-20.57,1.14-31.07.71-10.49,7.37-21.12,7.15-31.82-2.39-10.71-6.69-21.48-3.11-32.31-5.39-30.62-6.48-137.68-54.35-159.57-69.1-10.09-6.81-20-17.13-29.67-21.65-9.68-5-19.13-6.23-28.31-24-9.18-8.33-18.09-9.27-26.68-26.38-1.25-1.06-2.49-2.11-3.72-3.19-7.27-6.34-14.3-13.24-21.07-25.4-7.92-9.06-15.48-20.16-22.63-30.75s-13.92-21.54-20.22-32.81q-10.65-19.07-19-38c-5.57-12.74-10.42-33.27-14.63-37.4-4.22-16.87-7.79-26.4-10.82-36.29-3-10.09-5.51-16.64-7.52-34.68-2-13.35-3.57-24.52-4.74-32.54-1.18-13.66-2-20.45-2.5-29.91-1-19-.9-35.8-.32-49.88.29-7,.69-13.37,1.12-18.93,3.52-5.33,7.33-21.33,11.42-20.92,4.08-13.91,8.45-14.86,13.13-22.38,4.67-10.93,9.66-16.25,15-23.62,5.3-10.87,10.92-11.79,16.87-24.63,4.45-8.37,9.08-11.84,13.9-17.93v0a56.09,56.09,0,0,0,5-7.45c2.22-2.87,4.5-5.75,6.81-8.64q6.87-8.6,14.21-17.28,11.07-13.06,23.26-26.23t25.57-26.28A61.56,61.56,0,0,1,278,262.69c4.78-4.22,9.57-7.21,14.32-11.05,8.34-10.2,16.63-15.69,24.83-21.31a17.57,17.57,0,0,0,7.72-3.38c5.28-3.69,10.51-9.7,15.69-14.9l.89-.89a17.83,17.83,0,0,1,4.79-6.1h0c6.34-4.75,12.59,1.34,18.75-11,7.7-2.77,15.24-11.91,22.59-15.18q11-7.12,21.4-13.35,38.55-3.49,77.1-7,37.92-4.62,75.83-9.27a273.46,273.46,0,0,1,164,37.39l111.05,36c28.07,17.3,54.95,34.48,82.4,52.37,14.87,9.68,30.18,19.94,35,37.67.63,2.33,1.61,10.46,3.43,26.73,1.65,14.78,2.9,27.56,3.75,43.9.8,13.63,1.28,28,1.35,43C963,441,962.61,455,962,468.37Z" transform="translate(-120.47 -148.2)"/><path class="cls-2" d="M704.25,953.12A316.54,316.54,0,0,1,668.41,970q-12.57,4.95-25.3,8.65l-25.57,6.1a14.88,14.88,0,0,0-9.16-3.16c-6.87,0-13.84,4.3-20.89,7.05-10.2,9.12-20.57,1.14-31.07.71-10.49,7.37-21.12,7.15-31.82-2.39-10.71-6.69-21.48-3.11-32.31-5.39-30.62-6.48-137.68-54.35-159.57-69.1-10.09-6.81-20-17.13-29.67-21.65-9.68-5-19.13-6.23-28.31-24-9.18-8.33-18.09-9.27-26.68-26.38-1.25-1.06-2.49-2.11-3.72-3.19-7.27-6.34-14.3-13.24-21.07-25.4-7.92-9.06-15.48-20.16-22.63-30.75s-13.92-21.54-20.22-32.81q-10.65-19.07-19-38c-5.57-12.74-10.42-33.27-14.63-37.4-4.22-16.87-7.79-26.4-10.82-36.29-3-10.09-5.51-16.64-7.52-34.68-2-13.35-3.57-24.52-4.74-32.54-1.18-13.66-2-20.45-2.5-29.91-1-19-.9-35.8-.32-49.88.29-7,.69-13.37,1.12-18.93,3.52-5.33,7.33-21.33,11.42-20.92,4.08-13.91,8.45-14.86,13.13-22.38,4.67-10.93,9.66-16.25,15-23.62,5.3-10.87,10.92-11.79,16.87-24.63,6-11.24,12.26-13.66,18.92-25.4,2.22-2.87,4.5-5.75,6.81-8.64l29.42,65.92c43.5,134.76,83.15,216.15,83.15,216.15l69.07,58.71,30.7,157.45s94.65,42.7,107.45,48C535.24,896,672.67,942.45,704.25,953.12Z" transform="translate(-120.47 -148.2)"/><path class="cls-1" d="M1458.33,323.2" transform="translate(-120.47 -148.2)"/><path class="cls-3" d="M931.65,645.2q-3.57,12.12-8.18,25c-5.09,14.07-10.56,26.94-16.09,38.59q-6.64,16.15-13.33,32.3c-6,12.39-11.88,23.33-17.21,32.73-8.39,14.83-15.54,25.93-18.73,30.8-7.18,11-14,20.61-20.11,28.77a71.64,71.64,0,0,1-6.58,11.33A70.75,70.75,0,0,1,816.62,860c-8,13.38-16.26,20.44-22.53,24.42a102.13,102.13,0,0,0-17.27,13.79,38.4,38.4,0,0,0-6.29,8.33c-8,1.3-16.18,14.74-24.47,19.7-8.3,2.6-16.72,11.9-25.26,17.2q-8.2,5.1-16.55,9.67A316.54,316.54,0,0,1,668.41,970c-1.63.64-3.25,1.26-4.89,1.87L407.84,848S354.7,808,317.68,663.9s-75.05-179.11-75.05-179.11l-12-35S203,424.47,192.31,361.09v0a56.09,56.09,0,0,0,5-7.45c2.22-2.87,4.5-5.75,6.81-8.64q6.87-8.6,14.21-17.28,11.07-13.06,23.26-26.23t25.57-26.28A61.56,61.56,0,0,1,278,262.69c4.78-4.22,9.57-7.21,14.32-11.05,8.34-10.2,16.63-15.69,24.83-21.31a17.57,17.57,0,0,0,7.72-3.38c5.28-3.69,10.51-9.7,15.69-14.9l.89-.89a17.83,17.83,0,0,1,4.79-6.1h0l51.48,63.62,72,60A627.58,627.58,0,0,1,566,342.09c57.29,12.54,93,20.36,121.89,47.65,35.39,33.41,13.89,51.93,48.39,95.74,47.53,60.38,107.59,49.66,135.73,107.7,0,0,.23.47,23,52h36.64Z" transform="translate(-120.47 -148.2)"/></g><g id="Layer_2" data-name="Layer 2"><ellipse class="cls-4" cx="371.59" cy="378.44" rx="30.61" ry="37.86" transform="translate(-274.53 159.66) rotate(-37.88)"/><ellipse class="cls-5" cx="378.11" cy="387.35" rx="31.51" ry="45.03" transform="translate(-278.63 165.55) rotate(-37.88)"/><ellipse class="cls-4" cx="544.65" cy="521.68" rx="50.58" ry="52.09" transform="translate(-206.89 -39.49) rotate(-10.57)"/><ellipse class="cls-5" cx="546.91" cy="536.71" rx="52.07" ry="61.95" transform="translate(-209.6 -38.83) rotate(-10.57)"/><ellipse class="cls-4" cx="840.25" cy="777.7" rx="52.09" ry="11.18" transform="translate(-383.43 935.72) rotate(-58.3)"/><ellipse class="cls-5" cx="832.17" cy="790.56" rx="61.95" ry="11.51" transform="matrix(0.53, -0.85, 0.85, 0.53, -398.2, 934.95)"/><ellipse class="cls-4" cx="510.48" cy="748.92" rx="66.8" ry="65.16" transform="translate(-512.24 686.86) rotate(-61.17)"/><ellipse class="cls-5" cx="500.49" cy="765.65" rx="79.44" ry="67.08" transform="translate(-532.07 686.77) rotate(-61.17)"/><ellipse class="cls-4" cx="401.06" cy="639.81" rx="13.11" ry="12.99" transform="translate(-230.98 -63.82) rotate(-10.56)"/><ellipse class="cls-5" cx="401.62" cy="643.56" rx="13.5" ry="15.44" transform="translate(-231.66 -63.65) rotate(-10.57)"/><ellipse class="cls-4" cx="691.02" cy="608.64" rx="12.99" ry="13.11" transform="translate(-103.44 1087.87) rotate(-84.32)"/><ellipse class="cls-5" cx="690.51" cy="612.39" rx="15.44" ry="13.5" transform="translate(-107.64 1090.75) rotate(-84.32)"/><ellipse class="cls-4" cx="421.43" cy="589.91" rx="8.02" ry="9.82" transform="translate(-327.73 802.73) rotate(-84.32)"/><ellipse class="cls-5" cx="421.1" cy="592.22" rx="9.53" ry="10.11" transform="translate(-330.33 804.48) rotate(-84.32)"/><ellipse class="cls-4" cx="538.68" cy="390.78" rx="7.44" ry="9.76" transform="translate(-246.91 264.85) rotate(-37.88)"/><ellipse class="cls-5" cx="540.36" cy="393.08" rx="7.66" ry="11.6" transform="translate(-247.97 266.37) rotate(-37.88)"/></g></svg>