<svg xmlns="http://www.w3.org/2000/svg" viewBox="0 0 875.93 763.59"><defs><style>.cls-1{fill:#b5b6b6;}.cls-2{fill:#9fa0a0;}.cls-3{fill:#727171;}.cls-4{fill:#efefef;}.cls-5{fill:#3f3b3a;}</style></defs><g id="Layer_8" data-name="Layer 8"><path class="cls-1" d="M872.81,512c-67.28,110.65-142,206-142,206S462.12,877.15,290.33,914.16C236.8,925.7,192.67,925.38,169,904.68,69.46,817.57,110.35,502.9,110.35,502.9S150.06,410.25,209,329.38c24.7-33.91,52.79-65.75,82.73-87.81,0,0,55.11-17.78,64-32s264.88-28.45,264.88-28.45,1.45-.6,4.28-1.61c23.3-8.33,140-44.37,303.28,1.61C1030.09,209.83,957.33,373,872.81,512Z" transform="translate(-102.03 -158.21)"/><path class="cls-2" d="M872.81,512c-67.28,110.65-142,206-142,206S268.57,991.79,169,904.68,110.35,502.9,110.35,502.9s80-186.67,181.34-261.33c0,0,55.11-17.78,64-32s264.88-28.45,264.88-28.45,1.45-.6,4.28-1.61c-3.85,26.49-3.77,60.23,5,101.93C656.56,407.67,750.78,333,829,429,852.68,458.06,865.93,486,872.81,512Z" transform="translate(-102.03 -158.21)"/><path class="cls-3" d="M290.33,862.78v51.38C236.8,925.7,192.67,925.38,169,904.68,69.46,817.57,110.35,502.9,110.35,502.9S150.06,410.25,209,329.38c7.91,78.57,3.31,160.71-30.63,197.4C112.56,597.89,221,669,238.78,731.22S290.33,862.78,290.33,862.78Z" transform="translate(-102.03 -158.21)"/></g><g id="Layer_2" data-name="Layer 2"><ellipse class="cls-4" cx="467.75" cy="697.28" rx="71.47" ry="65.93" transform="translate(-221.95 -60.62) rotate(-10.57)"/><ellipse class="cls-5" cx="470.53" cy="716.31" rx="73.57" ry="78.41" transform="translate(-225.39 -59.79) rotate(-10.56)"/><ellipse class="cls-4" cx="818.11" cy="549.47" rx="52.09" ry="7.75" transform="translate(-255.81 554.5) rotate(-43.42)"/><ellipse class="cls-5" cx="807.03" cy="559.85" rx="61.95" ry="7.98" transform="translate(-265.98 549.72) rotate(-43.42)"/><ellipse class="cls-4" cx="363.95" cy="282.33" rx="30.47" ry="48.91" transform="translate(-109.05 397.18) rotate(-74.16)"/><ellipse class="cls-5" cx="377.76" cy="285.92" rx="31.37" ry="58.16" transform="translate(-102.46 413.07) rotate(-74.16)"/><ellipse class="cls-4" cx="732.88" cy="556.9" rx="6.56" ry="12.45" transform="translate(-191.72 -14.39) rotate(-10.57)"/><ellipse class="cls-5" cx="733.47" cy="560.49" rx="6.75" ry="14.81" transform="translate(-192.37 -14.22) rotate(-10.57)"/><ellipse class="cls-4" cx="550.87" cy="468.37" rx="29.81" ry="35.27" transform="translate(-93.72 788.14) rotate(-81.75)"/><ellipse class="cls-5" cx="549.26" cy="476.92" rx="35.45" ry="36.31" transform="translate(-103.57 793.86) rotate(-81.75)"/><ellipse class="cls-4" cx="544.15" cy="659.53" rx="7.4" ry="6.76" transform="translate(-268 977.57) rotate(-84.32)"/><ellipse class="cls-5" cx="543.86" cy="661.67" rx="8.8" ry="6.96" transform="translate(-270.38 979.22) rotate(-84.32)"/><ellipse class="cls-4" cx="268.34" cy="338.33" rx="7.44" ry="9.76" transform="translate(-253.23 77.82) rotate(-37.88)"/><ellipse class="cls-5" cx="270.03" cy="340.63" rx="7.66" ry="11.6" transform="translate(-254.28 79.34) rotate(-37.88)"/><ellipse class="cls-4" cx="565.63" cy="684.69" rx="7.44" ry="9.76" transform="translate(-403.25 333.31) rotate(-37.88)"/><ellipse class="cls-5" cx="567.31" cy="686.98" rx="7.66" ry="11.6" transform="translate(-404.3 334.82) rotate(-37.88)"/><ellipse class="cls-4" cx="259.96" cy="387.4" rx="14.71" ry="38.15" transform="translate(-255.05 12.15) rotate(-28.41)"/><ellipse class="cls-5" cx="265.11" cy="397.26" rx="15.15" ry="45.37" transform="translate(-259.12 15.79) rotate(-28.41)"/><ellipse class="cls-4" cx="470.85" cy="515.25" rx="8.02" ry="9.82" transform="translate(-190.47 774.62) rotate(-84.32)"/><ellipse class="cls-5" cx="470.51" cy="517.56" rx="9.53" ry="10.11" transform="translate(-193.08 776.37) rotate(-84.32)"/></g></svg>