<svg xmlns="http://www.w3.org/2000/svg" viewBox="0 0 788.48 957.76"><defs><style>.cls-1{fill:#c9caca;}.cls-2{fill:#9fa0a0;}.cls-3{fill:#727171;}.cls-4{fill:#efefef;}.cls-5{fill:#3f3b3a;}</style></defs><g id="Layer_5" data-name="Layer 5"><path class="cls-1" d="M858.53,996.11c-20.15,18.14-36.43,22.77-36.43,22.77L550,947.29,312.23,884.72S150.61,804.23,150.61,635.57c0-71.83-9.74-161-1.6-241.66,6.74-66.85,25.77-127.9,72.79-168.47,5.87-5.07,12.38-10.07,19.37-15,4-2.81,8.06-5.61,12.29-8.4,31.62-20.86,70.1-41.21,103-62.77,20.52-13.47,38.86-27.4,52-42.22,4.6-5.18,20.95-24.45,48.2-32.37a95.75,95.75,0,0,1,42.23-2.13L578,160l15.15,53.9c4,7.84,10.7,20.72,19.24,36.41C769,538.16,928.33,596.24,933.7,735.23,939.79,893.08,893.37,964.77,858.53,996.11Z" transform="translate(-145.77 -61.12)"/><path class="cls-2" d="M836.11,845a150.39,150.39,0,0,0-10.67,69.33c3.6,42.14,24.25,70.82,33.09,81.78a112.29,112.29,0,0,1-25.77,18.19,64.12,64.12,0,0,1-10.66,4.58L312.23,884.72S150.61,804.23,150.61,635.57c0-71.83-9.74-161-1.6-241.66l92.16-183.49c33.52-23.84,78-46.73,115.26-71.17l134.79,72.86S592.56,315.22,640.56,448.56c30.34,84.26-16,104.62-13.41,131.08,2.74,27.7,37.77,41.86,79.18,66.25,13.15,7.74,164.85,98.59,152.89,165.33C857.83,819,853.31,831.46,836.11,845Z" transform="translate(-145.77 -61.12)"/><path class="cls-3" d="M573,889.44a575.78,575.78,0,0,1-23,57.85L312.23,884.72S150.61,804.23,150.61,635.57c0-71.83-9.74-161-1.6-241.66,6.74-66.85,25.77-127.9,72.79-168.47,5.87-5.07,12.38-10.07,19.37-15,4-2.81,8.06-5.61,12.29-8.4l33.32,4.76S391.67,237,423.67,386.33,450.33,500.11,482.33,525,613.89,770.33,573,889.44Z" transform="translate(-145.77 -61.12)"/></g><g id="Layer_2" data-name="Layer 2"><ellipse class="cls-4" cx="723.72" cy="838.76" rx="59.93" ry="29.43" transform="translate(-524.18 889.8) rotate(-55.02)"/><ellipse class="cls-5" cx="713.45" cy="852.9" rx="71.27" ry="30.3" transform="translate(-540.15 887.42) rotate(-55.02)"/><ellipse class="cls-4" cx="537.85" cy="464.26" rx="11.18" ry="52.09" transform="translate(-221.77 45.36) rotate(-10.57)"/><ellipse class="cls-5" cx="540.52" cy="479.21" rx="11.51" ry="61.95" transform="translate(-224.47 46.11) rotate(-10.57)"/><ellipse class="cls-4" cx="454.84" cy="339.78" rx="26.84" ry="48.91" transform="translate(-237.21 124.08) rotate(-20.96)"/><ellipse class="cls-5" cx="459.68" cy="353.19" rx="27.63" ry="58.16" transform="translate(-241.69 126.69) rotate(-20.96)"/><ellipse class="cls-4" cx="554.82" cy="406.95" rx="6.56" ry="12.45" transform="translate(-210.98 47.5) rotate(-10.57)"/><ellipse class="cls-5" cx="555.42" cy="410.54" rx="6.75" ry="14.81" transform="translate(-211.62 47.67) rotate(-10.57)"/><ellipse class="cls-4" cx="535.66" cy="339.53" rx="24.06" ry="29.81" transform="translate(-231.78 152.97) rotate(-20.96)"/><ellipse class="cls-5" cx="538.54" cy="347.74" rx="24.77" ry="35.45" transform="translate(-234.52 154.54) rotate(-20.96)"/><ellipse class="cls-4" cx="714.71" cy="928.8" rx="8.02" ry="9.82" transform="translate(-425.98 1487.02) rotate(-84.32)"/><ellipse class="cls-5" cx="714.37" cy="931.11" rx="9.53" ry="10.11" transform="translate(-428.59 1488.77) rotate(-84.32)"/><ellipse class="cls-4" cx="744.83" cy="945.47" rx="7.44" ry="9.76" transform="translate(-569.34 595.35) rotate(-37.88)"/><ellipse class="cls-5" cx="746.51" cy="947.77" rx="7.66" ry="11.6" transform="translate(-570.39 596.87) rotate(-37.88)"/><ellipse class="cls-4" cx="657.24" cy="701.67" rx="7.44" ry="9.76" transform="translate(-438.11 490.22) rotate(-37.88)"/><ellipse class="cls-5" cx="658.93" cy="703.96" rx="7.66" ry="11.6" transform="translate(-439.16 491.74) rotate(-37.88)"/></g></svg>