<svg xmlns="http://www.w3.org/2000/svg" viewBox="0 0 905.14 877.57"><defs><style>.cls-1{fill:#b5b6b6;}.cls-2{fill:#9fa0a0;}.cls-3{fill:#727171;}.cls-4{fill:#efefef;}.cls-5{fill:#3f3b3a;}</style></defs><g id="Layer_7" data-name="Layer 7"><path class="cls-1" d="M973,512.56c-6.23,49.92-22,100-39.94,144.08A925.73,925.73,0,0,1,861,797L585.61,996.11s-341.5,40.89-425-33.78c-37.82-33.79-88.89-156.44-88.89-156.44s2.8-31.54,6.42-78.65,8.07-109.77,11.35-172c2.16-40.84,3.29-71.47,4-95.07,2.12-65.32,1.43-76.89,12-102.26,17.35-41.85,45.73-74.3,76.88-99.43,28.06-22.65,58.37-39.37,84.9-51.68,143.1-79,251.24-83.43,323.56-72.89,42,6.12,93.7,25.69,144.84,49.62,111.15,52,219.6,124.6,219.6,124.6s2.34,6.55,5.53,17.94S968,353.66,971.44,373C971.44,373,982.4,437.27,973,512.56Z" transform="translate(-71.67 -129.71)"/><path class="cls-2" d="M973,512.56C956.6,643.9,874,776.47,861,797L585.61,996.11s-341.5,40.89-425-33.78c-37.82-33.79-88.89-156.44-88.89-156.44s2.8-31.54,6.42-78.65,8.07-109.77,11.35-172c8.13-153.83,1.68-162.79,16-197.33,17.35-41.85,45.73-74.3,76.88-99.43l147.12,15.87,302.23-46.22,104-44.6c111.15,52,219.6,124.6,219.6,124.6s2.34,6.55,5.53,17.94S968,353.66,971.44,373C971.44,373,982.4,437.27,973,512.56Z" transform="translate(-71.67 -129.71)"/><path class="cls-3" d="M933.06,656.64A925.73,925.73,0,0,1,861,797L585.61,996.11s-341.5,40.89-425-33.78c-37.82-33.79-88.89-156.44-88.89-156.44s2.8-31.54,6.42-78.65,8.07-109.77,11.35-172c2.16-40.84,3.29-71.47,4-95.07,33-23.87,86.05-51.66,154.18-50.71,64.41.91,111.84,27.07,133.33,40.89l143.24,72.89c74,13.55,134.34,18.63,176.76,16.78,140.44-6.11,168.89,20.56,213.33,73.89C921.81,622.86,928,637.87,933.06,656.64Z" transform="translate(-71.67 -129.71)"/></g><g id="Layer_2" data-name="Layer 2"><ellipse class="cls-4" cx="879.2" cy="411.07" rx="39.52" ry="42.88" transform="translate(-33.3 766.09) rotate(-55.02)"/><ellipse class="cls-5" cx="872.22" cy="420.25" rx="47" ry="44.14" transform="translate(-43.81 764.29) rotate(-55.02)"/><ellipse class="cls-4" cx="664.15" cy="291.86" rx="52.09" ry="15.66" transform="translate(-90.52 406.66) rotate(-43.42)"/><ellipse class="cls-5" cx="653" cy="302.18" rx="61.95" ry="16.12" transform="translate(-100.67 401.83) rotate(-43.42)"/><ellipse class="cls-4" cx="252.33" cy="321.02" rx="9.18" ry="48.91" transform="translate(-227.03 214.03) rotate(-55.02)"/><ellipse class="cls-5" cx="264.08" cy="329.12" rx="9.45" ry="58.16" transform="translate(-228.65 227.11) rotate(-55.02)"/><ellipse class="cls-4" cx="539.54" cy="288.92" rx="6.56" ry="12.45" transform="translate(-115.5 -25.89) rotate(-10.57)"/><ellipse class="cls-5" cx="540.13" cy="292.5" rx="6.75" ry="14.81" transform="translate(-116.14 -25.72) rotate(-10.57)"/><ellipse class="cls-4" cx="755.08" cy="279.11" rx="24.06" ry="29.81" transform="translate(-121.55 158.87) rotate(-20.96)"/><ellipse class="cls-5" cx="757.95" cy="287.32" rx="24.77" ry="35.45" transform="translate(-124.29 160.45) rotate(-20.96)"/><ellipse class="cls-4" cx="595.5" cy="503.73" rx="8.02" ry="9.82" transform="translate(-36.32 916.78) rotate(-84.32)"/><ellipse class="cls-5" cx="595.17" cy="506.04" rx="9.53" ry="10.11" transform="translate(-38.92 918.53) rotate(-84.32)"/><ellipse class="cls-4" cx="340.91" cy="345.56" rx="7.44" ry="9.76" transform="translate(-212.01 152.39) rotate(-37.88)"/><ellipse class="cls-5" cx="342.6" cy="347.86" rx="7.66" ry="11.6" transform="translate(-213.07 153.91) rotate(-37.88)"/><ellipse class="cls-4" cx="454.42" cy="440.79" rx="7.44" ry="9.76" transform="translate(-246.57 242.14) rotate(-37.88)"/><ellipse class="cls-5" cx="456.1" cy="443.08" rx="7.66" ry="11.6" transform="translate(-247.62 243.66) rotate(-37.88)"/><ellipse class="cls-4" cx="704.72" cy="353.12" rx="14.71" ry="38.15" transform="translate(-154.8 248.14) rotate(-28.41)"/><ellipse class="cls-5" cx="709.88" cy="362.98" rx="15.15" ry="45.37" transform="translate(-158.87 251.78) rotate(-28.41)"/><ellipse class="cls-4" cx="760" cy="361.07" rx="8.02" ry="9.82" transform="translate(253.87 951.92) rotate(-84.32)"/><ellipse class="cls-5" cx="759.67" cy="363.38" rx="9.53" ry="10.11" transform="translate(251.26 953.67) rotate(-84.32)"/></g></svg>