<svg xmlns="http://www.w3.org/2000/svg" viewBox="0 0 860.86 943.25"><defs><style>.cls-1{fill:#b5b5b6;}.cls-2{fill:#9fa0a0;}.cls-3{fill:#727171;}.cls-4{fill:#efefef;}.cls-5{fill:#3e3a39;}</style></defs><g id="Layer_3" data-name="Layer 3"><path class="cls-1" d="M982.81,875.8c-15.57,26.66-37,47.85-61.88,64.69C822.05,1007.55,669.8,1005.62,624,1005c-16.7-.21-32.93-1.14-48.64-2.68a583.69,583.69,0,0,1-68.07-10.74c-87.12-19-153.1-54.07-190.81-77A1896.75,1896.75,0,0,1,214.61,710.36,1899.87,1899.87,0,0,1,141.4,507.14q21.76-112.71,43.51-225.42c6.67-19.89,34.88-101.52,80.23-159.41q5.16-6.59,10.61-12.71c21.91-24.6,47.36-42.89,75.88-46.66a119.25,119.25,0,0,1,20-.91c67.46,3.8,87.74,73.19,153.78,102.7,19.57,8.75,50.84,17.42,97.25,10.32q3.78,1,7.86,2.09c36.14,10,89.18,30.43,137.89,74.57,49,44.38,71.58,92.8,84.22,121.1C975.08,647.09,1036.31,784.22,982.81,875.8Z" transform="translate(-141.4 -61.94)"/><path class="cls-2" d="M920.93,940.49C822.05,1007.55,669.8,1005.62,624,1005a579.35,579.35,0,0,1-116.71-13.42c9.4-219.91-19.75-280.81-51.66-290.62-24.45-7.51-54,13.89-82.67-5.33-22.15-14.87-20.21-38.23-37.33-72-25-49.33-65.31-70.77-80-82.67-39-31.57-62-128.91,9.47-418.69,24.18-30.86,53.24-55,86.49-59.37a119.25,119.25,0,0,1,20-.91c67.46,3.8,87.74,73.19,153.78,102.7,19.57,8.75,50.84,17.42,97.25,10.32q3.78,1,7.86,2.09L818.33,437s117.34,122.67,24,173.33-64,120-64,120S865.62,857.11,920.93,940.49Z" transform="translate(-141.4 -61.94)"/><path class="cls-3" d="M575.4,1002.35h0a583.69,583.69,0,0,1-68.07-10.74c-87.12-19-153.1-54.07-190.81-77A1896.75,1896.75,0,0,1,214.61,710.36,1899.87,1899.87,0,0,1,141.4,507.14q21.76-112.71,43.51-225.42c6.67-19.89,34.88-101.52,80.23-159.41q5.16-6.59,10.61-12.71A294.22,294.22,0,0,1,300.54,141s7.87,11.49,14.56,23.58c18,32.5,9.86,108.44,9.9,157.75,0,53.93,15,92.73,37.33,146.67,27.78,67,64.12,112.14,112,170.67,81.81,100,99.07,88.84,109.34,130.66,8,32.72-.91,46.17-7.19,202.68C576,985.28,575.63,995.44,575.4,1002.35Z" transform="translate(-141.4 -61.94)"/></g><g id="Layer_2" data-name="Layer 2"><ellipse class="cls-4" cx="427.72" cy="299.73" rx="41.99" ry="56.92" transform="matrix(0.79, -0.61, 0.61, 0.79, -235.32, 263.81)"/><ellipse class="cls-5" cx="437.56" cy="313.1" rx="43.23" ry="67.69" transform="matrix(0.79, -0.61, 0.61, 0.79, -241.46, 272.67)"/><ellipse class="cls-4" cx="759.37" cy="486.89" rx="50.58" ry="69.74" transform="translate(-217.8 85.55) rotate(-10.57)"/><ellipse class="cls-5" cx="762.58" cy="506.98" rx="52.07" ry="82.94" transform="translate(-221.43 86.48) rotate(-10.57)"/><ellipse class="cls-4" cx="837.5" cy="865.47" rx="11.18" ry="52.09" transform="translate(-466.91 490.72) rotate(-30.89)"/><ellipse class="cls-5" cx="845.19" cy="878.56" rx="11.51" ry="61.95" transform="translate(-472.54 496.53) rotate(-30.89)"/><ellipse class="cls-4" cx="668.26" cy="897.5" rx="66.8" ry="65.16" transform="translate(-581.63 988.3) rotate(-61.17)"/><ellipse class="cls-5" cx="658.27" cy="914.24" rx="79.44" ry="67.08" transform="translate(-601.47 988.21) rotate(-61.17)"/><ellipse class="cls-4" cx="524.55" cy="503.91" rx="13.11" ry="12.99" transform="translate(-224.9 42.78) rotate(-10.56)"/><ellipse class="cls-5" cx="525.1" cy="507.66" rx="13.5" ry="15.44" transform="translate(-225.58 42.95) rotate(-10.57)"/><ellipse class="cls-4" cx="678.26" cy="624.28" rx="29.81" ry="24.06" transform="translate(-151.44 1175.53) rotate(-84.32)"/><ellipse class="cls-5" cx="677.15" cy="632.9" rx="35.45" ry="24.77" transform="translate(-161.02 1182.2) rotate(-84.32)"/><ellipse class="cls-4" cx="461.33" cy="484.98" rx="8.02" ry="9.82" transform="translate(-208.3 834.15) rotate(-84.32)"/><ellipse class="cls-5" cx="461" cy="487.3" rx="9.53" ry="10.11" transform="translate(-210.9 835.91) rotate(-84.32)"/><ellipse class="cls-4" cx="538.68" cy="390.78" rx="7.44" ry="9.76" transform="translate(-267.84 351.12) rotate(-37.88)"/><ellipse class="cls-5" cx="540.36" cy="393.08" rx="7.66" ry="11.6" transform="translate(-268.9 352.63) rotate(-37.88)"/><ellipse class="cls-4" cx="572.08" cy="339.51" rx="9.78" ry="37.16" transform="translate(-180.61 15.15) rotate(-7.45)"/><ellipse class="cls-5" cx="573.39" cy="350.27" rx="10.07" ry="44.19" transform="translate(-182 15.41) rotate(-7.45)"/></g></svg>