<svg xmlns="http://www.w3.org/2000/svg" viewBox="0 0 991.59 721.92"><defs><style>.cls-1{fill:#b5b6b6;}.cls-2{fill:#9fa0a0;}.cls-3{fill:#727171;}.cls-4{fill:#efefef;}.cls-5{fill:#3f3b3a;}</style></defs><g id="Layer_6" data-name="Layer 6"><path class="cls-1" d="M1040.4,591.3,1029,606.61l-120.6,162.6q-104.54,14.44-214.65,34.21-108.67,19.64-211,42.59-112.24,25.07-216.59,53.21l-169.3-48.5-27.76-8A1517.3,1517.3,0,0,0,77,628.11c-6.8-198-48.1-266.61,1-331a7.92,7.92,0,0,1,.89-.9c2.28-2.08,9.84-8,32.42-20.32,23.93-13,64.74-33.25,134-63.59q15.63-6.85,33.25-14.4c207.61-58.17,543.67,25.66,543.67,25.66s205.86,217.25,218.17,258.31S1040.4,591.3,1040.4,591.3Z" transform="translate(-54.29 -177.3)"/><path class="cls-2" d="M245.31,212.25c74.61-9.14,147.78-13.39,157,3.42,19.56,35.55,236.45,135.11,273.78,96s186.67,26.66,186.67,26.66L972.72,462.62q28.15,72,56.32,144l-120.6,162.6q-104.54,14.44-214.65,34.21c-152,27.46-294.67,60.16-427.55,95.8l-169.3-48.5L78.87,296.16Z" transform="translate(-54.29 -177.3)"/><path class="cls-3" d="M482.83,846q-112.24,25.07-216.59,53.21l-169.3-48.5-27.76-8A1517.3,1517.3,0,0,0,77,628.11c-6.8-198-48.1-266.61,1-331a7.92,7.92,0,0,1,.89-.9c2.28-2.08,9.84-8,32.42-20.32,7,74.22,24.44,130.54,38.6,167.38,8.18,21.3,26.9,57.15,64,128,62.32,119,69.49,127,78.22,135.11,56.8,52.59,145.78,76.45,145.78,76.45h0S463.1,790.13,482.83,846Z" transform="translate(-54.29 -177.3)"/><path class="cls-2" d="M-598.56,237" transform="translate(-54.29 -177.3)"/></g><g id="Layer_2" data-name="Layer 2"><ellipse class="cls-4" cx="412.61" cy="512.45" rx="59.93" ry="29.43" transform="translate(-298.09 379.45) rotate(-55.02)"/><ellipse class="cls-5" cx="402.34" cy="526.59" rx="71.27" ry="30.3" transform="translate(-314.06 377.07) rotate(-55.02)"/><ellipse class="cls-4" cx="881.93" cy="594.25" rx="52.09" ry="10.12" transform="translate(-221.38 591.53) rotate(-43.42)"/><ellipse class="cls-5" cx="870.83" cy="604.61" rx="61.95" ry="10.42" transform="translate(-231.54 586.73) rotate(-43.42)"/><ellipse class="cls-4" cx="313.45" cy="421.57" rx="46.23" ry="48.91" transform="translate(-184.35 -37.28) rotate(-20.96)"/><ellipse class="cls-5" cx="318.1" cy="435.06" rx="47.59" ry="58.16" transform="translate(-188.87 -34.72) rotate(-20.96)"/><ellipse class="cls-4" cx="626.56" cy="722.22" rx="6.56" ry="12.45" transform="translate(-176.09 -50.18) rotate(-10.57)"/><ellipse class="cls-5" cx="627.16" cy="725.8" rx="6.75" ry="14.81" transform="translate(-176.73 -50.01) rotate(-10.57)"/><ellipse class="cls-4" cx="742.64" cy="376.89" rx="24.06" ry="29.81" transform="translate(-139.97 113.3) rotate(-20.96)"/><ellipse class="cls-5" cx="745.51" cy="385.1" rx="24.77" ry="35.45" transform="translate(-142.71 114.87) rotate(-20.96)"/><ellipse class="cls-4" cx="892.37" cy="720.31" rx="8.02" ry="9.82" transform="translate(33.05 1359.77) rotate(-84.32)"/><ellipse class="cls-5" cx="892.04" cy="722.63" rx="9.53" ry="10.11" transform="translate(30.44 1361.52) rotate(-84.32)"/><ellipse class="cls-4" cx="340.91" cy="345.56" rx="7.44" ry="9.76" transform="translate(-194.63 104.8) rotate(-37.88)"/><ellipse class="cls-5" cx="342.6" cy="347.86" rx="7.66" ry="11.6" transform="translate(-195.68 106.32) rotate(-37.88)"/><ellipse class="cls-4" cx="657.24" cy="701.67" rx="7.44" ry="9.76" transform="translate(-346.63 374.04) rotate(-37.88)"/><ellipse class="cls-5" cx="658.93" cy="703.96" rx="7.66" ry="11.6" transform="translate(-347.68 375.55) rotate(-37.88)"/><ellipse class="cls-4" cx="494.61" cy="776.54" rx="14.71" ry="38.15" transform="translate(-364.2 151.58) rotate(-28.41)"/><ellipse class="cls-5" cx="499.77" cy="786.4" rx="15.15" ry="45.37" transform="translate(-368.27 155.22) rotate(-28.41)"/></g></svg>