<svg xmlns="http://www.w3.org/2000/svg" viewBox="0 0 856.42 956.21"><defs><style>.cls-1{fill:#c9caca;}.cls-2{fill:#9fa0a0;}.cls-3{fill:#727171;}.cls-4{fill:#efefef;}.cls-5{fill:#3e3a39;}</style></defs><g id="Layer_4" data-name="Layer 4"><path class="cls-1" d="M984.05,794.65c-11.6,40.76-31,73.31-49.8,97.8h0c-6.86,9-13.64,16.84-19.92,23.65l-86.46,42.1-118,57.46c-53.42-.09-128.61-7.32-206.5-42.83q-14-6.4-28.17-14.06c-7.86-4.28-14.4-8.15-20.27-12h0c-28.3-18.34-41.2-35.22-113.55-90.22-113.66-86.41-178.6-118.31-198.93-148.44-5.46-8.1-7.7-16.07-6.79-24.94,1.7-16.6,13.24-24.83,33-38.36,14.83-10.15,34.28-23.29,57.67-45.19,52.79-49.44,79-99.85,102.86-147.1l2-4c66.77-132.34,35-188.21,99.11-287.3l.45-.7C463,111,501,78.56,526.89,59.46A400.37,400.37,0,0,1,653,89.85c23,9.73,40,19.53,56.87,29.82,104.75,63.8,157.13,95.71,192,145.77,29.83,42.83,39.44,85.44,58.67,170.67,10.9,48.33,14.37,83.78,21.33,154.67C992.17,695.62,997.05,749,984.05,794.65Z" transform="translate(-135.47 -59.46)"/><path class="cls-2" d="M934.25,892.45h0c-6.86,9-13.64,16.84-19.92,23.65l-204.44,99.56c-53.42-.09-128.61-7.32-206.5-42.83-15.64-8.36-31.88-17.08-48.44-26h0c-28.3-18.34-41.2-35.22-113.55-90.22-113.66-86.41-178.6-118.31-198.93-148.44l26.2-63.3c14.83-10.15,34.28-23.29,57.67-45.19C280.62,548.83,306.8,497,331.22,448.56c66.77-132.34,35-188.21,99.11-287.3C459.18,195.71,515.94,257,590.78,253c99.55-5.33,229.33,140.44,229.33,140.44S893,507.22,834.33,606.78s-33.77,106.66-33.77,106.66S920.39,810.13,934.25,892.45Z" transform="translate(-135.47 -59.46)"/><path class="cls-3" d="M827.87,958.21l-118,57.46c-53.42-.09-128.61-7.32-206.5-42.83q-14-6.4-28.17-14.06c-7.86-4.28-14.4-8.15-20.27-12h0c-28.3-18.34-41.2-35.22-113.55-90.22-113.66-86.41-178.6-118.31-198.93-148.44-5.46-8.1-7.7-16.07-6.79-24.94,1.7-16.6,13.24-24.83,33-38.36,14.83-10.15,34.28-23.29,57.67-45.19,52.79-49.44,79-99.85,102.86-147.1a644.85,644.85,0,0,0,9.14,76C342,548.87,345,560.07,349,578.33a974.27,974.27,0,0,1,16,97.78c88.1,41.82,143.42,90.79,177.78,128C597.35,863.23,602.92,897,650.1,913.29c72.53,25.09,146.08-24.65,171.79,8.15C830.83,932.85,829.56,948.6,827.87,958.21Z" transform="translate(-135.47 -59.46)"/><path class="cls-3" d="M1410.33,766.78" transform="translate(-135.47 -59.46)"/></g><g id="Layer_2" data-name="Layer 2"><ellipse class="cls-4" cx="458.85" cy="641.61" rx="30.22" ry="40.07" transform="translate(-432.73 357.42) rotate(-37.88)"/><ellipse class="cls-5" cx="465.77" cy="651.03" rx="31.11" ry="47.65" transform="translate(-437.06 363.66) rotate(-37.88)"/><ellipse class="cls-4" cx="714.39" cy="814.5" rx="69.74" ry="50.58" transform="translate(-498 873.46) rotate(-55.02)"/><ellipse class="cls-5" cx="702.3" cy="830.86" rx="82.94" ry="52.07" transform="translate(-516.56 870.53) rotate(-55.02)"/><ellipse class="cls-4" cx="788.08" cy="420.71" rx="11.18" ry="52.09" transform="translate(-239.68 404.75) rotate(-30.89)"/><ellipse class="cls-5" cx="795.77" cy="433.81" rx="11.51" ry="61.95" transform="translate(-245.31 410.56) rotate(-30.89)"/><ellipse class="cls-4" cx="448.91" cy="346.2" rx="48.91" ry="26.84" transform="translate(-206.31 513.11) rotate(-61.17)"/><ellipse class="cls-5" cx="441.78" cy="358.56" rx="58.16" ry="27.63" transform="translate(-220.83 513.27) rotate(-61.17)"/><ellipse class="cls-4" cx="688.26" cy="512.44" rx="13.11" ry="12.99" transform="translate(-217.76 75.42) rotate(-10.56)"/><ellipse class="cls-5" cx="688.82" cy="516.18" rx="13.5" ry="15.44" transform="translate(-218.44 75.59) rotate(-10.57)"/><ellipse class="cls-4" cx="637.66" cy="530.89" rx="24.06" ry="29.81" transform="translate(-283.19 203.78) rotate(-20.96)"/><ellipse class="cls-5" cx="640.53" cy="539.1" rx="24.77" ry="35.45" transform="translate(-285.94 205.35) rotate(-20.96)"/><ellipse class="cls-4" cx="851.27" cy="895.02" rx="8.02" ry="9.82" transform="translate(-259.02 1594.14) rotate(-84.32)"/><ellipse class="cls-5" cx="850.94" cy="897.33" rx="9.53" ry="10.11" transform="translate(-261.63 1595.9) rotate(-84.32)"/><ellipse class="cls-4" cx="827.76" cy="861.99" rx="7.44" ry="9.76" transform="translate(-490.32 630.35) rotate(-37.88)"/><ellipse class="cls-5" cx="829.44" cy="864.29" rx="7.66" ry="11.6" transform="translate(-491.38 631.86) rotate(-37.88)"/><ellipse class="cls-4" cx="576.92" cy="342.83" rx="21.31" ry="37.16" transform="translate(-114.68 659) rotate(-64.76)"/><ellipse class="cls-5" cx="586.63" cy="347.66" rx="21.94" ry="44.19" transform="translate(-113.48 670.54) rotate(-64.76)"/><ellipse class="cls-4" cx="657.24" cy="701.67" rx="7.44" ry="9.76" transform="translate(-427.81 491.88) rotate(-37.88)"/><ellipse class="cls-5" cx="658.93" cy="703.96" rx="7.66" ry="11.6" transform="translate(-428.87 493.4) rotate(-37.88)"/></g></svg>